<?xml version="1.0" encoding="UTF-8"?>
<svg id="katman_1" data-name="katman 1" xmlns="http://www.w3.org/2000/svg" version="1.1" viewBox="0 0 192 192">
  <defs>
    <style>
      .cls-1 {
        fill: #8964e8;
      }

      .cls-1, .cls-2, .cls-3, .cls-4 {
        stroke-width: 0px;
      }

      .cls-2 {
        fill: #ffa23e;
      }

      .cls-3 {
        fill: #17b877;
      }

      .cls-4 {
        fill: #25a6e9;
      }
    </style>
  </defs>
  <path class="cls-1" d="M40,156h64c6.63,0,12,5.37,12,12h0c0,6.63-5.37,12-12,12H40c-6.63,0-12-5.37-12-12h0c0-6.63,5.37-12,12-12Z"/>
  <path class="cls-3" d="M116,120h12c6.63,0,12,5.37,12,12h0c0,6.63-5.37,12-12,12h-12c-6.63,0-12-5.37-12-12h0c0-6.63,5.37-12,12-12Z"/>
  <path class="cls-3" d="M68,120h12c6.63,0,12,5.37,12,12h0c0,6.63-5.37,12-12,12h-12c-6.63,0-12-5.37-12-12h0c0-6.63,5.37-12,12-12Z"/>
  <path class="cls-2" d="M96,84h28c6.63,0,12,5.37,12,12h0c0,6.63-5.37,12-12,12h-28c-6.63,0-12-5.37-12-12h0c0-6.63,5.37-12,12-12Z"/>
  <path class="cls-2" d="M160,84h0c6.63,0,12,5.37,12,12h0c0,6.63-5.37,12-12,12h0c-6.63,0-12-5.37-12-12h0c0-6.63,5.37-12,12-12Z"/>
  <path class="cls-4" d="M68,48h64c6.63,0,12,5.37,12,12h0c0,6.63-5.37,12-12,12h-64c-6.63,0-12-5.37-12-12h0c0-6.63,5.37-12,12-12Z"/>
  <path class="cls-1" d="M76,12h28c6.63,0,12,5.37,12,12h0c0,6.63-5.37,12-12,12h-28c-6.63,0-12-5.37-12-12h0c0-6.63,5.37-12,12-12Z"/>
  <path class="cls-1" d="M40,12h0c6.63,0,12,5.37,12,12h0c0,6.63-5.37,12-12,12h0c-6.63,0-12-5.37-12-12h0c0-6.63,5.37-12,12-12Z"/>
</svg>